# xmcd
#
# Track frame offsets:
#	187
#	16390
#	35015
#	55710
#	69857
#	94340
#	112207
#	131240
#	149210
#	165472
#
# Disc length: 2464 seconds
#
# Revision: 1
# Processed by: cddbd v1.5PL3 Copyright (c) Steve Scherf et al.
# Submitted via: CDex 1.50Beta5
#
DISCID=94099e0a
DTITLE=Tim Hardin Trio - Jazzで聴く/竹内まりや作品集
DYEAR=1900
DGENRE=Jazz
TTITLE0=駅
TTITLE1=シングル・アゲイン
TTITLE2=涙のワンサイデッド・ラブ
TTITLE3=色・ホワイトブレンド
TTITLE4=けんかをやめて
TTITLE5=もう一度
TTITLE6=Oh No,Oh Yes!
TTITLE7=元気を出して
TTITLE8=After Years
TTITLE9=本気でオンリーユー
EXTD=
EXTT0=
EXTT1=
EXTT2=
EXTT3=
EXTT4=
EXTT5=
EXTT6=
EXTT7=
EXTT8=
EXTT9=
PLAYORDER=
